<?xml version="1.0" encoding="UTF-8"?>
<svg id="_图层_2" data-name="图层 2" xmlns="http://www.w3.org/2000/svg" viewBox="0 0 430.61 465.59">
  <defs>
    <style>
      .cls-1 {
        fill: #fee187;
      }

      .cls-2 {
        stroke-linecap: round;
        stroke-linejoin: round;
        stroke-width: 43px;
      }

      .cls-2, .cls-3 {
        fill: none;
        stroke: #ffc61b;
      }

      .cls-3 {
        stroke-miterlimit: 10;
        stroke-width: 45px;
      }
    </style>
  </defs>
  <g id="_图层_1-2" data-name="图层 1">
    <g>
      <g>
        <path class="cls-1" d="M166.51,317.31c-97.59,169.04-243.98-84.52-48.8-84.52-195.19,0-48.8-253.55,48.8-84.52-97.59-169.04,195.19-169.04,97.59,0,97.59-169.04,243.98,84.52,48.8,84.52,195.19,0,48.8,253.55-48.8,84.52,97.59,169.04-195.19,169.04-97.59,0Z"/>
        <circle class="cls-1" cx="215.31" cy="232.8" r="85.89"/>
      </g>
      <path class="cls-2" d="M166.51,317.31c-97.59,169.04-243.98-84.52-48.8-84.52-195.19,0-48.8-253.55,48.8-84.52-97.59-169.04,195.19-169.04,97.59,0,97.59-169.04,243.98,84.52,48.8,84.52,195.19,0,48.8,253.55-48.8,84.52,97.59,169.04-195.19,169.04-97.59,0Z"/>
      <circle class="cls-3" cx="215.31" cy="232.8" r="85.89"/>
    </g>
  </g>
</svg>